# xmcd
#
# Track frame offsets:
#	150
#	21208
#	45083
#	70455
#	90595
#	113900
#	135980
#	155908
#	182623
#	206755
#	228070
#	250560
#
# Disc length: 3584 seconds
#
# Revision: 3258961398
# Processed by: cddbd v1.5.2PL0 Copyright (c) Steve Scherf et al.
# Submitted via: EZCDAudioConverter 8.0.2.1
#
DISCID=930dfe0c
DTITLE=Khánh Hà, Anh Tú - Premier Amour
DYEAR=1989
DGENRE=Miscellaneous
TTITLE0=Khánh Hà - Anh hỡi em về đây (Je Suis Revenu)
TTITLE1=Anh Tú - Tôi, người mơ mộng (Je Suis Un Romantic)
TTITLE2=Khánh Hà - Chuyện tình Marilyn and John
TTITLE3=Khánh Hà, Anh Tú - Đôi bạn (Un Roman D'amitié)
TTITLE4=Khánh Hà - Căn nhà bên dòng nước (Ma Maison Au Bord De L'eau)
TTITLE5=Anh Tú - Bài hát cho người tTình (Non Je Ne Suis Pas La Même)
TTITLE6=Khánh Hà - Mãi mãi bên em (Je Veux Auprès De Toi)
TTITLE7=Anh Tú - Eve Lève-Toi
TTITLE8=Khánh Hà - Tình trong giây phút (Aour D'un Soir)
TTITLE9=Anh Tú - Người yêu phi công (Aviateur)
TTITLE10=Khánh Hà - Vĩnh biệt người tình (Adieu Sois Heureuse)
TTITLE11=Anh Tú - Ngày mưa tuyết (Jour De Neige)
EXTD=
EXTT0=
EXTT1=
EXTT2=
EXTT3=
EXTT4=
EXTT5=
EXTT6=
EXTT7=
EXTT8=
EXTT9=
EXTT10=
EXTT11=
PLAYORDER=
